Patient4_TMGait_0pt7_02_left_06_GRF.mot
version=1
nRows=58
nColumns=19
inDegrees=no
endheader
time	F1x	F1y	F1z	M1x	M1y	M1z	F2x	F2y	F2z	M2x	M2y	M2z	EC1x	EC1y	EC1z	EC2x	EC2y	EC2z
6.46	0.32705	-3.6943	4.3538	-0.080935	-3.4866	-9.6407	-30.4203	715.548	-46.4663	250.6989	69.2094	784.9464	-0.0592	0.0182	-0.0073	-0.0462	0.0165	0.9585
6.4714	-0.088876	-1.3626	2.9747	-0.40754	-2.4995	-5.0673	-26.2196	719.5442	-52.8924	253.3344	72.511	784.4761	-0.0592	0.0182	-0.0073	-0.0462	0.0165	0.9585
6.4827	-0.3524	0.57971	1.825	-0.68896	-1.6647	-1.2581	-22.2688	725.144	-58.2317	256.4165	75.0162	785.1494	-0.0592	0.0182	-0.0073	-0.0462	0.0165	0.9585
6.4941	-0.49818	2.0542	0.96126	-0.91424	-1.0317	1.6373	-18.6594	732.0715	-62.2273	259.8281	76.5478	786.8165	-0.0592	0.0182	-0.0073	-0.0462	0.0165	0.9585
6.5054	-0.55388	3.0924	0.37843	-1.0875	-0.60062	3.657	-15.363	739.8233	-64.8902	263.4145	77.0853	789.0392	-0.0592	0.0182	-0.0073	-0.0462	0.0165	0.9585
6.5168	-0.57522	3.7539	0.031731	-1.2127	-0.34575	4.9308	-12.2272	747.8057	-66.3936	267.0014	76.7004	791.2317	-0.0592	0.0182	-0.0073	-0.0462	0.0165	0.9585
6.5281	-0.57323	4.1076	-0.1338	-1.2925	-0.23129	5.5983	-9.1193	755.436	-66.9965	270.4125	75.542	792.8224	-0.0592	0.0182	-0.0073	-0.0462	0.0165	0.9585
6.5395	-0.60195	4.2074	-0.16473	-1.3236	-0.23914	5.8055	-5.9232	762.1777	-66.9095	273.4839	73.7275	793.2927	-0.0592	0.0182	-0.0073	-0.0462	0.0165	0.9585
6.5509	-0.65694	4.0592	-0.11772	-1.2909	-0.32541	5.6067	-2.5961	767.6736	-66.3889	276.092	71.451	792.3472	-0.0592	0.0182	-0.0073	-0.0462	0.0165	0.9585
6.5622	-0.77573	3.6571	-0.0081335	-1.1725	-0.49057	5.0509	0.85718	771.7001	-65.5733	278.1508	68.8268	789.8309	-0.0592	0.0182	-0.0073	-0.0462	0.0165	0.9585
6.5736	-0.94084	2.9273	0.12599	-0.93274	-0.69797	4.0689	4.3797	774.1941	-64.6404	279.6142	66.0364	785.7856	-0.0592	0.0182	-0.0073	-0.0462	0.0165	0.9585
6.5849	-1.1576	1.7945	0.2798	-0.53604	-0.94223	2.617	7.9275	775.162	-63.6931	280.4595	63.2029	780.3075	-0.0592	0.0182	-0.0073	-0.0462	0.0165	0.9585
6.5963	-1.3605	0.17335	0.42292	0.047283	-1.172	0.59135	11.4479	774.5941	-62.8505	280.6609	60.4649	773.4818	-0.0592	0.0182	-0.0073	-0.0462	0.0165	0.9585
6.6076	-1.515	-1.9567	0.5444	0.82545	-1.3564	-2.0074	14.9697	772.5229	-62.1892	280.2088	57.8946	765.4207	-0.0592	0.0182	-0.0073	-0.0462	0.0165	0.9585
6.619	-1.4858	-4.5196	0.6106	1.7667	-1.4098	-5.099	18.4817	768.9941	-61.7616	279.105	55.547	756.2344	-0.0592	0.0182	-0.0073	-0.0462	0.0165	0.9585
6.6304	-1.1603	-7.2336	0.57003	2.7642	-1.2235	-8.3422	21.9714	764.0963	-61.6167	277.3708	53.4725	746.0574	-0.0592	0.0182	-0.0073	-0.0462	0.0165	0.9585
6.6417	-0.333	-9.5516	0.36381	3.6095	-0.6471	-11.116	25.3876	757.9412	-61.7612	275.0451	51.6913	735.0459	-0.0592	0.0182	-0.0073	-0.0462	0.0165	0.9585
6.6531	1.1823	-10.5354	-0.10302	3.9496	0.50277	-12.3068	28.6181	750.6129	-62.2112	272.1676	50.2539	723.3175	-0.0592	0.0182	-0.0073	-0.0462	0.0165	0.9585
6.6644	3.5888	-8.8258	-0.89943	3.2675	2.3849	-10.3175	31.552	742.1997	-62.924	268.7869	49.1643	710.9666	-0.0592	0.0182	-0.0073	-0.0462	0.0165	0.9585
6.6758	6.989	-2.5517	-2.1055	0.85937	5.1264	-2.9044	34.0526	732.7408	-63.837	264.9456	48.4154	698.0254	-0.0592	0.0182	-0.0073	-0.0462	0.0165	0.9585
6.6871	11.3647	10.5336	-3.742	-4.1209	8.7405	12.5996	36.0495	722.2737	-64.8094	260.6894	47.9167	684.507	-0.0592	0.0182	-0.0073	-0.0462	0.0165	0.9585
6.6985	16.3711	32.8608	-5.7539	-12.5829	13.0268	39.1221	37.4971	710.7366	-65.673	256.031	47.5391	670.3255	-0.0592	0.0182	-0.0073	-0.0462	0.0165	0.9585
6.7099	21.2824	66.5041	-7.9358	-25.2988	17.4552	79.157	38.4231	697.8853	-66.2165	250.9168	47.0949	655.2285	-0.0592	0.0182	-0.0073	-0.0462	0.0165	0.9585
6.7212	24.704	112.4093	-9.8755	-42.5968	20.9947	133.8847	38.8853	683.2587	-66.2086	245.2076	46.3714	638.7791	-0.0592	0.0182	-0.0073	-0.0462	0.0165	0.9585
6.7326	24.6006	169.2343	-10.8499	-63.9359	22.0137	201.7419	38.9434	666.1619	-65.4162	238.678	45.1566	620.3417	-0.0592	0.0182	-0.0073	-0.0462	0.0165	0.9585
6.7439	19.1854	232.9329	-9.9269	-87.7365	18.7453	277.9985	38.6351	645.7831	-63.6226	231.0537	43.2563	599.1822	-0.0592	0.0182	-0.0073	-0.0462	0.0165	0.9585
6.7553	8.9587	297.1796	-6	-111.5516	10.0714	355.0496	38.0024	621.2897	-60.7097	222.0481	40.5635	574.5428	-0.0592	0.0182	-0.0073	-0.0462	0.0165	0.9585
6.7666	-3.3701	354.826	1.6727	-132.6955	-3.7623	424.0645	37.1037	591.9385	-56.7011	211.3994	37.0897	545.7314	-0.0592	0.0182	-0.0073	-0.0462	0.0165	0.9585
6.778	-15.3756	401.948	11.9693	-149.7572	-20.4733	479.9589	36.0176	557.2616	-51.819	198.926	33.0068	512.2983	-0.0592	0.0182	-0.0073	-0.0462	0.0165	0.9585
6.7894	-25.8579	439.0362	23.099	-163.0138	-37.476	523.0825	34.7795	517.2104	-46.3842	184.5852	28.5734	474.1914	-0.0592	0.0182	-0.0073	-0.0462	0.0165	0.9585
6.8007	-34.1593	469.1852	33.642	-173.7083	-52.8465	557.0895	33.393	472.2317	-40.8038	168.51	24.1231	431.8226	-0.0592	0.0182	-0.0073	-0.0462	0.0165	0.9585
6.8121	-40.257	495.6197	42.2647	-183.1393	-65.063	585.9374	31.7559	423.2417	-35.3615	151.0075	19.9152	386.0544	-0.0592	0.0182	-0.0073	-0.0462	0.0165	0.9585
6.8234	-44.2858	520.5846	48.4952	-192.179	-73.6288	612.3784	29.7051	371.4668	-30.1914	132.5095	16.1077	338.0175	-0.0592	0.0182	-0.0073	-0.0462	0.0165	0.9585
6.8348	-46.4243	545.0132	52.1661	-201.181	-78.4724	637.618	27.0194	318.3828	-25.3383	113.5438	12.8085	289.0932	-0.0592	0.0182	-0.0073	-0.0462	0.0165	0.9585
6.8461	-46.8845	569.1755	53.8453	-210.1922	-80.3334	661.9876	23.5615	265.6725	-20.8204	94.7166	10.0836	240.8132	-0.0592	0.0182	-0.0073	-0.0462	0.0165	0.9585
6.8575	-45.9684	593.1443	54.2836	-219.1574	-80.2013	685.6886	19.3392	215.1576	-16.7048	76.6792	7.9917	194.8136	-0.0592	0.0182	-0.0073	-0.0462	0.0165	0.9585
6.8689	-43.9807	616.8476	54.2565	-227.9717	-79.0992	708.7482	14.6398	168.6233	-13.0558	60.0671	6.4893	152.6296	-0.0592	0.0182	-0.0073	-0.0462	0.0165	0.9585
6.8802	-41.4617	640.1297	54.5111	-236.4944	-78.057	731.1206	9.9141	127.538	-9.9574	45.399	5.4791	115.5025	-0.0592	0.0182	-0.0073	-0.0462	0.0165	0.9585
6.8916	-38.8341	662.4785	55.4319	-244.4944	-77.6863	752.3069	5.6873	92.7383	-7.4243	32.9755	4.7746	84.1036	-0.0592	0.0182	-0.0073	-0.0462	0.0165	0.9585
6.9029	-36.5442	683.4842	57.2742	-251.7882	-78.4095	771.9206	2.3162	64.4325	-5.414	22.8708	4.2015	58.5882	-0.0592	0.0182	-0.0073	-0.0462	0.0165	0.9585
6.9143	-34.7228	702.88	59.7181	-258.3066	-79.9468	789.6596	-0.059006	42.2658	-3.828	14.9647	3.6278	38.6144	-0.0592	0.0182	-0.0073	-0.0462	0.0165	0.9585
6.9256	-33.3603	720.6948	62.3645	-264.0944	-81.8569	805.596	-1.5069	25.6183	-2.5684	9.0362	2.9959	23.6248	-0.0592	0.0182	-0.0073	-0.0462	0.0165	0.9585
6.937	-32.325	736.758	64.7235	-269.1468	-83.5702	819.4694	-2.1685	13.726	-1.5796	4.814	2.3163	12.9167	-0.0592	0.0182	-0.0073	-0.0462	0.0165	0.9585
6.9484	-31.493	750.6672	66.5935	-273.3503	-84.8121	830.8562	-2.2468	5.8165	-0.82564	2.0177	1.6341	5.7959	-0.0592	0.0182	-0.0073	-0.0462	0.0165	0.9585
6.9597	-30.6402	761.8386	68.0135	-276.5129	-85.5364	839.0749	-1.9458	1.1015	-0.30135	0.36115	1.0261	1.5372	-0.0592	0.0182	-0.0073	-0.0462	0.0165	0.9585
6.9711	-29.6812	769.7076	69.0708	-278.4434	-85.7977	843.5362	-1.4987	-1.245	0.021271	-0.45327	0.54677	-0.58572	-0.0592	0.0182	-0.0073	-0.0462	0.0165	0.9585
6.9824	-28.4704	773.9803	69.9048	-279.047	-85.6925	843.9315	-1.0072	-2.0029	0.18677	-0.70372	0.1994	-1.2868	-0.0592	0.0182	-0.0073	-0.0462	0.0165	0.9585
6.9938	-27.0083	774.7912	70.4588	-278.3962	-85.1712	840.465	-0.57959	-1.8095	0.24411	-0.61808	-0.021678	-1.1284	-0.0592	0.0182	-0.0073	-0.0462	0.0165	0.9585
7.0051	-25.2627	772.6864	70.7421	-276.7181	-84.2393	833.7562	-0.23197	-1.1413	0.2386	-0.36623	-0.14638	-0.54404	-0.0592	0.0182	-0.0073	-0.0462	0.0165	0.9585
7.0165	-23.2721	768.4809	70.6708	-274.3332	-82.8348	824.7485	0.011167	-0.30258	0.19936	-0.059419	-0.19465	0.20914	-0.0592	0.0182	-0.0073	-0.0462	0.0165	0.9585
7.0279	-21.0845	763.0072	70.2854	-271.5665	-81.0208	814.3377	0.16739	0.49998	0.15535	0.23103	-0.20317	0.93	-0.0592	0.0182	-0.0073	-0.0462	0.0165	0.9585
7.0392	-18.7779	757.0812	69.6137	-268.7222	-78.8615	803.4294	0.25711	1.2007	0.10981	0.47976	-0.18305	1.5733	-0.0592	0.0182	-0.0073	-0.0462	0.0165	0.9585
7.0506	-16.4015	751.3324	68.713	-266.038	-76.4489	792.6894	0.29497	1.7599	0.073569	0.67667	-0.15044	2.1089	-0.0592	0.0182	-0.0073	-0.0462	0.0165	0.9585
7.0619	-14.0533	746.2721	67.6534	-263.7018	-73.898	782.6618	0.299	2.2136	0.042777	0.83194	-0.10882	2.5751	-0.0592	0.0182	-0.0073	-0.0462	0.0165	0.9585
7.0733	-11.7197	742.1991	66.4763	-261.8295	-71.2586	773.6385	0.27066	2.5711	0.016939	0.95249	-0.062657	2.9679	-0.0592	0.0182	-0.0073	-0.0462	0.0165	0.9585
7.0846	-9.4239	739.2607	65.2433	-260.4764	-68.5992	765.7411	0.22758	2.8606	-0.0014098	1.0488	-0.021659	3.3068	-0.0592	0.0182	-0.0073	-0.0462	0.0165	0.9585
7.096	-7.1225	737.3858	63.9556	-259.6223	-65.9072	758.8363	0.17696	3.0999	-0.019858	1.1281	0.01892	3.6002	-0.0592	0.0182	-0.0073	-0.0462	0.0165	0.9585
7.1074	-4.7694	736.35	62.625	-259.1829	-63.1724	752.6563	0.12241	3.2704	-0.038668	1.1862	0.058629	3.8215	-0.0592	0.0182	-0.0073	-0.0462	0.0165	0.9585
